<svg version="1.0" xmlns="http://www.w3.org/2000/svg"
 width="300.000000pt" height="301.000000pt" viewBox="0 0 300.000000 301.000000"
 preserveAspectRatio="xMidYMid meet">

<g transform="translate(0.000000,301.000000) scale(0.100000,-0.100000)"
fill="#f14635" stroke="none">
<path d="M1360 3001 c0 -4 -36 -11 -79 -15 -43 -3 -92 -10 -107 -15 -16 -5
-49 -14 -74 -21 -96 -27 -302 -110 -320 -130 -3 -3 -21 -14 -40 -24 -219 -119
-453 -371 -578 -621 -73 -145 -142 -382 -142 -485 0 -22 -4 -40 -10 -40 -6 0
-10 -53 -10 -140 0 -77 4 -140 9 -140 4 0 11 -34 14 -75 16 -187 108 -426 242
-630 64 -97 215 -261 308 -332 l57 -44 9 25 c21 53 42 197 48 316 7 154 -9
304 -48 464 -32 134 -36 220 -14 306 46 175 53 217 60 321 14 236 32 296 118
387 77 81 78 85 71 211 -7 106 -6 111 19 154 51 86 168 167 241 167 42 0 82
-31 91 -69 8 -37 -12 -85 -77 -184 -39 -60 -52 -89 -56 -127 l-5 -50 83 -82
c91 -93 123 -150 186 -332 42 -123 66 -156 126 -181 66 -26 220 -32 293 -10
82 23 144 57 184 99 29 29 34 42 34 79 -1 24 -9 66 -18 92 -19 58 -14 90 27
165 62 113 171 181 252 159 40 -11 66 -42 66 -78 0 -13 -30 -84 -67 -157 -61
-121 -66 -136 -55 -160 11 -24 16 -25 50 -19 90 17 253 147 312 250 55 96 113
127 158 85 69 -65 28 -163 -144 -351 -163 -176 -227 -266 -240 -337 -13 -66
23 -277 72 -433 51 -162 162 -386 217 -438 l25 -23 33 49 c18 26 41 57 51 67
10 11 18 25 18 32 0 7 4 14 9 16 11 4 84 137 114 208 42 98 77 214 103 338 8
41 19 185 19 262 0 193 -39 401 -101 537 -8 17 -14 36 -14 42 0 19 -89 183
-148 271 -62 93 -245 284 -332 346 -218 157 -477 263 -685 281 -41 3 -75 10
-75 14 0 5 -63 9 -140 9 -77 0 -140 -4 -140 -9z"/>
<path d="M1456 1388 c-77 -11 -120 -64 -147 -183 -20 -85 -20 -867 0 -975 28
-156 80 -218 186 -220 48 -1 273 19 315 29 52 11 126 56 142 84 16 30 14 208
-6 377 -25 211 -82 597 -97 655 -14 55 -52 118 -91 151 -72 60 -205 97 -302
82z"/>
<path d="M924 795 c-47 -113 -45 -528 3 -654 8 -20 64 -50 95 -51 36 -1 41 
296 9 518 -30 198 -71 271 -107 187z"/>
<path d="M2171 786 c-46 -55 -32 -356 24 -518 16 -46 18 -48 56 -48 21 0 39 3
39 8 0 9 97 74 104 70 14 -8 35 43 36 85 1 132 -155 417 -229 417 -10 0 -24
-6 -30 -14z"/>
</g>
</svg> 
